# xmcd
#
# Track frame offsets:
#	150
#	15147
#	34018
#	46786
#	68097
#	85800
#	109102
#	130496
#	149302
#	166974
#	180246
#
# Disc length: 2682 seconds
# Revision: 0
# Processed by: cddbd v1.5.2PL0 Copyright (c) Steve Scherf et al.
# Submitted via: dBpowerAMP V12.0
#
DISCID=800a780b
DTITLE=FanWeiQi 范玮琪 - Faces of FanFan
DYEAR=2008
DGENRE=Rock
TTITLE0=放电
TTITLE1=再联络
TTITLE2=黑白配
TTITLE3=每天
TTITLE4=范范之辈
TTITLE5=到不了
TTITLE6=太阳
TTITLE7=你
TTITLE8=不眠
TTITLE9=小亲亲
TTITLE10=天使的翅膀
EXTD=
EXTT0=
EXTT1=
EXTT2=
EXTT3=
EXTT4=
EXTT5=
EXTT6=
EXTT7=
EXTT8=
EXTT9=
EXTT10=
PLAYORDER=
